<svg width="62" height="33" viewBox="0 0 62 33" fill="none" xmlns="http://www.w3.org/2000/svg">
<g opacity="0.5">
<path d="M14.4286 15.9057H11.7378L8.12305 24.7312H10.7123L11.3621 23.0825H14.7433L15.3526 24.7312H17.9722L14.4286 15.9057Z" fill="#F7F8FA"/>
<path d="M29.4462 15.7702C28.644 15.7702 27.9739 16.3618 27.9739 17.0892V23.558C27.9739 24.2854 28.644 24.877 29.4462 24.877C30.2483 24.877 30.9185 24.2854 30.9185 23.558V17.0892C30.9185 16.3618 30.2483 15.7702 29.4462 15.7702ZM25.6182 19.8726H22.4807V21.5213H24.3693C24.2982 22.0063 24.156 22.2778 23.9225 22.5009C23.5773 22.821 23.1 22.9955 22.5111 22.9955C21.841 22.9955 21.313 22.7918 20.9068 22.3942C20.3687 21.8511 20.0945 21.1722 20.0945 20.3672C20.0945 19.9793 20.1757 19.6011 20.328 19.2325C20.7139 18.2433 21.4348 17.7389 22.44 17.7389C22.9376 17.7389 23.3539 17.8844 23.7194 18.1463C23.9733 18.35 24.1865 18.6506 24.3794 19.0288L26.5828 18.1657C26.2071 17.448 25.7603 16.9049 25.2323 16.5363C24.4911 16.0223 23.6077 15.7605 22.5416 15.7605C20.9576 15.7605 19.729 16.2454 18.8354 17.2152C18.0739 18.0687 17.6779 19.1161 17.6779 20.3575C17.6779 21.4923 18.013 22.4524 18.673 23.2671C19.5564 24.3339 20.8154 24.877 22.4705 24.877C22.8868 24.877 23.2828 24.8382 23.6483 24.7606C24.1763 24.6443 24.6637 24.46 25.0902 24.1884C25.8619 23.7132 26.4102 23.0149 26.7452 22.1324C26.9585 21.5408 27.0702 20.7939 27.0702 19.8629L25.6182 19.8726ZM50.2717 15.9059H47.5809L43.9662 24.7315H46.5554L47.2052 23.0828H50.5864L51.1957 24.7315H53.8154L50.2717 15.9059ZM42.1181 15.9059H39.6406L37.6809 20.4836L35.772 15.9059H33.3452L31.7409 24.7315H34.188L35.0003 19.6592L37.1225 24.7315H38.1074L40.3818 19.6689L41.0723 24.7315H43.5194L42.1181 15.9059Z" fill="#F7F8FA"/>
<path d="M10.1295 9.49151H9.64318V8.94165H9.29329V9.49151H8.94933V9.79035H9.29329V11.2248C9.29329 11.6252 9.61353 11.8165 9.91004 11.8165C10.0405 11.8165 10.1235 11.7926 10.171 11.7746L10.0998 11.4579C10.0702 11.4638 10.0227 11.4758 9.94562 11.4758C9.79143 11.4758 9.64318 11.428 9.64318 11.1291V9.79035H10.1295V9.49151Z" fill="#F7F8FA"/>
<path d="M11.5564 11.8344C12.1732 11.8344 12.5883 11.3622 12.5883 10.651C12.5883 9.93379 12.1732 9.46163 11.5564 9.46163C10.9397 9.46163 10.5246 9.93379 10.5246 10.651C10.5246 11.3622 10.9397 11.8344 11.5564 11.8344ZM11.5564 11.5176C11.0879 11.5176 10.8745 11.1112 10.8745 10.651C10.8745 10.1908 11.0879 9.7784 11.5564 9.7784C12.0249 9.7784 12.2384 10.1908 12.2384 10.651C12.2384 11.1112 12.0249 11.5176 11.5564 11.5176Z" fill="#F7F8FA"/>
<path d="M14.0416 12.6951C14.5872 12.6951 15.026 12.444 15.026 11.8523V9.49151H14.688V9.85609H14.6524C14.5753 9.73656 14.433 9.46163 13.9882 9.46163C13.413 9.46163 13.0157 9.92184 13.0157 10.6271C13.0157 11.3443 13.4308 11.7507 13.9823 11.7507C14.4271 11.7507 14.5694 11.4877 14.6465 11.3622H14.6761V11.8284C14.6761 12.2109 14.4093 12.3843 14.0416 12.3843C13.628 12.3843 13.4827 12.1646 13.3893 12.0376L13.1105 12.2348C13.2529 12.4754 13.5331 12.6951 14.0416 12.6951ZM14.0297 11.434C13.5909 11.434 13.3655 11.0993 13.3655 10.6211C13.3655 10.1549 13.585 9.7784 14.0297 9.7784C14.4567 9.7784 14.6821 10.125 14.6821 10.6211C14.6821 11.1291 14.4508 11.434 14.0297 11.434Z" fill="#F7F8FA"/>
<path d="M16.6213 11.8344C17.0838 11.8344 17.4219 11.6013 17.5286 11.2547L17.1906 11.159C17.1016 11.3981 16.8955 11.5176 16.6213 11.5176C16.2106 11.5176 15.9274 11.2502 15.9111 10.7586H17.5642V10.6092C17.5642 9.75449 17.0601 9.46163 16.5857 9.46163C15.9689 9.46163 15.5598 9.95172 15.5598 10.657C15.5598 11.3622 15.963 11.8344 16.6213 11.8344ZM15.9111 10.4538C15.9348 10.0967 16.1854 9.7784 16.5857 9.7784C16.9652 9.7784 17.2084 10.0653 17.2084 10.4538H15.9111Z" fill="#F7F8FA"/>
<path d="M19.0868 9.49151H18.6005V8.94165H18.2506V9.49151H17.9067V9.79035H18.2506V11.2248C18.2506 11.6252 18.5709 11.8165 18.8674 11.8165C18.9978 11.8165 19.0809 11.7926 19.1283 11.7746L19.0571 11.4579C19.0275 11.4638 18.98 11.4758 18.903 11.4758C18.7488 11.4758 18.6005 11.428 18.6005 11.1291V9.79035H19.0868V9.49151Z" fill="#F7F8FA"/>
<path d="M20.0119 10.406C20.0119 10.0055 20.2654 9.7784 20.6109 9.7784C20.94 9.7784 21.1387 9.98758 21.1387 10.3522V11.7866H21.4886V10.3283C21.4886 9.73805 21.1772 9.46163 20.7117 9.46163C20.3529 9.46163 20.1483 9.61254 20.0416 9.85012H20.0119V8.72649H19.662V11.7866H20.0119V10.406Z" fill="#F7F8FA"/>
<path d="M23.0834 11.8344C23.546 11.8344 23.884 11.6013 23.9908 11.2547L23.6527 11.159C23.5638 11.3981 23.3577 11.5176 23.0834 11.5176C22.6728 11.5176 22.3896 11.2502 22.3733 10.7586H24.0263V10.6092C24.0263 9.75449 23.5223 9.46163 23.0479 9.46163C22.4311 9.46163 22.0219 9.95172 22.0219 10.657C22.0219 11.3622 22.4252 11.8344 23.0834 11.8344ZM22.3733 10.4538C22.397 10.0967 22.6476 9.7784 23.0479 9.7784C23.4274 9.7784 23.6705 10.0653 23.6705 10.4538H22.3733Z" fill="#F7F8FA"/>
<path d="M24.5586 11.7866H24.9085V10.3342C24.9085 10.0234 25.1516 9.79633 25.4837 9.79633C25.5771 9.79633 25.6735 9.81426 25.6972 9.82023V9.46163C25.6572 9.45864 25.5653 9.45565 25.5134 9.45565C25.2406 9.45565 25.0034 9.61105 24.9203 9.83816H24.8966V9.49151H24.5586V11.7866Z" fill="#F7F8FA"/>
<path d="M27.8021 11.7866H28.146L28.6442 10.0234H28.6798L29.1779 11.7866H29.5219L30.2157 9.49151H29.848L29.3558 11.2427H29.3321L28.8518 9.49151H28.4781L27.9919 11.2487H27.9681L27.4759 9.49151H27.1082L27.8021 11.7866Z" fill="#F7F8FA"/>
<path d="M30.6783 11.7866H31.0282V9.49151H30.6783V11.7866ZM30.8562 9.109C30.9926 9.109 31.1053 9.00142 31.1053 8.86993C31.1053 8.73844 30.9926 8.63086 30.8562 8.63086C30.7198 8.63086 30.6071 8.73844 30.6071 8.86993C30.6071 9.00142 30.7198 9.109 30.8562 9.109Z" fill="#F7F8FA"/>
<path d="M32.6594 9.49151H32.1731V8.94165H31.8232V9.49151H31.4792V9.79035H31.8232V11.2248C31.8232 11.6252 32.1434 11.8165 32.4399 11.8165C32.5704 11.8165 32.6534 11.7926 32.7009 11.7746L32.6297 11.4579C32.6001 11.4638 32.5526 11.4758 32.4755 11.4758C32.3213 11.4758 32.1731 11.428 32.1731 11.1291V9.79035H32.6594V9.49151Z" fill="#F7F8FA"/>
<path d="M33.5845 10.406C33.5845 10.0055 33.838 9.7784 34.1834 9.7784C34.5126 9.7784 34.7112 9.98758 34.7112 10.3522V11.7866H35.0611V10.3283C35.0611 9.73805 34.7498 9.46163 34.2843 9.46163C33.9255 9.46163 33.7209 9.61254 33.6141 9.85012H33.5845V8.72649H33.2346V11.7866H33.5845V10.406Z" fill="#F7F8FA"/>
</g>
<rect x="0.5" y="0.5" width="60.4308" height="32" rx="4.5" stroke="#8A8C99"/>
</svg>
