<svg width="16" height="16" viewBox="0 0 16 16" fill="none" xmlns="http://www.w3.org/2000/svg">
<path d="M7.81547 1.39506C8.70397 0.512367 9.9029 0.0117554 11.1561 0.000204399C12.4092 -0.0113466 13.6172 0.467079 14.5218 1.33324C15.4265 2.19941 15.9561 3.3846 15.9974 4.63555C16.0387 5.8865 15.5885 7.10397 14.743 8.0278L14.591 8.18519L7.55149 15.2142L7.5227 15.2382C6.97447 15.7301 6.26309 16.0015 5.52611 16C4.78913 15.9985 4.07889 15.7241 3.53272 15.2299C2.98655 14.7357 2.64326 14.0568 2.56921 13.3244C2.49516 12.5921 2.69561 11.8584 3.13182 11.2651C3.15089 11.2282 3.17367 11.1934 3.19981 11.1612L3.24301 11.1133L3.31181 11.043L3.4254 10.9247L3.427 10.9271L9.37536 4.97188C9.47689 4.87007 9.61167 4.80809 9.75513 4.79724C9.89859 4.78639 10.0412 4.82739 10.1569 4.91276L10.2241 4.97108C10.3258 5.07244 10.3878 5.20689 10.3986 5.34999C10.4095 5.49309 10.3686 5.63533 10.2833 5.75084L10.2249 5.81795L4.15014 11.9002C3.86993 12.2449 3.72868 12.6817 3.75406 13.1249C3.77945 13.5682 3.96963 13.9861 4.28737 14.2966C4.6051 14.6071 5.02748 14.788 5.47175 14.8037C5.91603 14.8195 6.35018 14.669 6.68916 14.3817L13.7542 7.32714C14.4044 6.66128 14.7711 5.76977 14.7772 4.83972C14.7834 3.90968 14.4286 3.0134 13.7873 2.33901C13.146 1.66462 12.2681 1.26454 11.3378 1.22276C10.4075 1.18097 9.49712 1.50072 8.7978 2.1149L8.66341 2.24273L8.65301 2.25391L1.02477 9.87254C0.91772 9.97975 0.773998 10.0425 0.622502 10.0482C0.471007 10.0539 0.322971 10.0021 0.208159 9.9032C0.0933474 9.80433 0.0202731 9.6657 0.00362852 9.51521C-0.0130161 9.36471 0.0280032 9.2135 0.118439 9.09198L0.176035 9.02487L7.81467 1.39506H7.81547Z" fill="#12131A"/>
</svg>
