<svg width="116" height="70" viewBox="0 0 116 70" fill="none" xmlns="http://www.w3.org/2000/svg">
<path d="M8.39041 28.7241L14.1918 42.1931H11.411L10.1164 39.2H4.0274L2.73288 42.1931H0L5.80137 28.7241H8.39041ZM7.04795 32.2483L5.03425 36.8345H9.06164L7.04795 32.2483Z" fill="#12131A"/>
<path d="M39.226 28.7241V39.8276H45.9384V42.1931H36.589V28.7241H39.226Z" fill="#12131A"/>
<path d="M68.3836 28.7241H79.6986V31.0897H75.3836V42.1931H72.7466V31.0897H68.3836V28.7241Z" fill="#12131A"/>
<path d="M114.034 40.4071C112.74 41.7588 111.062 42.4347 109.048 42.4347C107.034 42.4347 105.356 41.7588 104.062 40.4071C102.767 39.0554 102.096 37.414 102.096 35.4347C102.096 33.4554 102.767 31.814 104.062 30.4623C105.356 29.1105 107.034 28.4347 109.048 28.4347C111.062 28.4347 112.74 29.1105 114.034 30.4623C115.329 31.814 116 33.4554 116 35.4347C116 37.414 115.329 39.0554 114.034 40.4071ZM105.979 38.7174C106.795 39.6347 107.801 40.0692 109.048 40.0692C110.295 40.0692 111.301 39.6347 112.116 38.7174C112.932 37.8002 113.363 36.7381 113.363 35.4347C113.363 34.1312 112.932 33.0209 112.116 32.1519C111.301 31.283 110.295 30.8002 109.048 30.8002C107.801 30.8002 106.795 31.2347 105.979 32.1519C105.164 33.0209 104.733 34.1312 104.733 35.4347C104.733 36.7381 105.164 37.8485 105.979 38.7174Z" fill="#12131A"/>
<path fill-rule="evenodd" clip-rule="evenodd" d="M24.7671 70L24.7671 28H25.726L25.726 70H24.7671Z" fill="#12131A"/>
<path fill-rule="evenodd" clip-rule="evenodd" d="M56.5616 56.4828V14.4828H57.5205V56.4828H56.5616Z" fill="#12131A"/>
<path fill-rule="evenodd" clip-rule="evenodd" d="M90.274 42V4.22039e-08L91.2329 0V42H90.274Z" fill="#12131A"/>
</svg>
